<svg width="32" height="32" viewBox="0 0 32 32" fill="none" xmlns="http://www.w3.org/2000/svg">
<path d="M29.9981 6.9992C29.9981 7.65572 29.636 8.30581 28.9326 8.91236C28.2291 9.5189 27.198 10.07 25.8981 10.5343C24.5983 10.9985 23.0552 11.3667 21.3568 11.618C19.6585 11.8692 17.8382 11.9985 16 11.9985C12.2874 11.9985 8.72695 11.4718 6.10179 10.5343C3.47663 9.5967 2.00183 8.3251 2.00183 6.9992C2.00183 6.34267 2.3639 5.69258 3.06738 5.08603C3.77085 4.47949 4.80194 3.92836 6.10179 3.46413C7.40164 2.9999 8.94478 2.63165 10.6431 2.38041C12.3414 2.12917 14.1617 1.99986 16 1.99986C17.8382 1.99986 19.6585 2.12917 21.3568 2.38041C23.0552 2.63165 24.5983 2.9999 25.8981 3.46413C27.198 3.92836 28.2291 4.47949 28.9326 5.08603C29.636 5.69258 29.9981 6.34267 29.9981 6.9992Z" stroke="#F63356" stroke-width="2" stroke-linecap="round" stroke-linejoin="round"/>
<path d="M29.9981 24.9968C29.9981 25.8744 29.3513 26.7365 28.1227 27.4965C26.8941 28.2565 25.127 28.8876 22.999 29.3263C20.871 29.7651 18.4572 29.9961 16 29.9961C13.5428 29.9961 11.1289 29.7651 9.0009 29.3263C6.87291 28.8876 5.10582 28.2565 3.87722 27.4965C2.64863 26.7365 2.00183 25.8744 2.00183 24.9968" stroke="#F63356" stroke-width="2" stroke-linecap="round" stroke-linejoin="round"/>
<path d="M29.9981 18.9976C29.9981 19.8752 29.3513 20.7373 28.1227 21.4973C26.8941 22.2573 25.127 22.8884 22.999 23.3271C20.871 23.7659 18.4572 23.9969 16 23.9969C13.5428 23.9969 11.1289 23.7659 9.0009 23.3271C6.87291 22.8884 5.10582 22.2572 3.87723 21.4973C2.64863 20.7373 2.00183 19.8752 2.00183 18.9976" stroke="#F63356" stroke-width="2" stroke-linecap="round" stroke-linejoin="round"/>
<path d="M29.9981 12.9984C29.9981 13.876 29.3513 14.7381 28.1227 15.4981C26.8941 16.2581 25.127 16.8892 22.999 17.3279C20.871 17.7667 18.4572 17.9977 16 17.9977C13.5428 17.9977 11.1289 17.7667 9.0009 17.3279C6.87291 16.8892 5.10582 16.2581 3.87722 15.4981C2.64863 14.7381 2.00183 13.876 2.00183 12.9984" stroke="#F63356" stroke-width="2" stroke-linecap="round" stroke-linejoin="round"/>
<path d="M2.00183 6.99922V24.9968" stroke="#F63356" stroke-width="2" stroke-linecap="round" stroke-linejoin="round"/>
<path d="M29.998 6.99919V24.9968" stroke="#F63356" stroke-width="2" stroke-linecap="round" stroke-linejoin="round"/>
</svg>
